#!OML:ASF E:\Mandelcareful walks\Project 1\Capture day 1\Session 1\Subject1.ASF
:FULLY-SPECIFIED
:DEGREES
627
root -9.25164 14.8355 -1.00999 -331.498 68.4797 -350.379
lowerback 26.1404 1.39428 -6.76463
upperback 5.60766 0.230791 -1.22628
thorax -8.24894 0.38479 2.42809
lowerneck -24.1154 -9.49843 -14.9527
upperneck 11.6637 -9.76952 10.0063
head 8.77569 -4.30421 4.34704
rclavicle 3.15074e-014 2.04748e-014
rhumerus -14.911 12.5923 -90.7305
rradius 74.8582
rwrist -16.7284
rhand -22.5123 -33.906
rfingers 7.12502
rthumb 3.91408 -63.8498
lclavicle 3.15074e-014 2.04748e-014
lhumerus -0.00165357 -56.7801 67.8726
lradius 69.2147
lwrist 6.77671
lhand -13.7084 -7.8545
lfingers 7.12502
lthumb 12.4102 21.7571
rfemur -45.6897 -17.7261 3.08486
rtibia 58.5902
rfoot -23.7263 -5.56368
rtoes -13.1238
lfemur -60.0946 19.5699 -25.3997
ltibia 66.3109
lfoot -21.0897 8.26611
ltoes -11.9034
628
root -9.22206 14.8424 -1.03527 -331.991 68.3778 -350.988
lowerback 25.9372 1.3456 -7.0998
upperback 5.53444 0.116364 -0.883373
thorax -8.21507 0.336169 3.03957
lowerneck -23.8754 -9.33395 -15.2258
upperneck 11.4898 -9.4741 9.9757
head 8.65062 -4.18738 4.43404
rclavicle -2.31584e-014 2.34566e-014
rhumerus -15.1467 13.8626 -90.3983
rradius 74.4674
rwrist -17.2554
rhand -18.4868 -28.1904
rfingers 7.12502
rthumb 7.80054 -58.0265
lclavicle -2.31584e-014 2.34566e-014
lhumerus -0.822723 -55.379 68.6996
lradius 68.8787
lwrist 6.2753
lhand -14.186 -7.79437
lfingers 7.12502
lthumb 11.9498 21.8446
rfemur -45.5481 -17.5201 3.13942
rtibia 58.2219
rfoot -23.7076 -5.58027
rtoes -13.4268
lfemur -60.1105 19.645 -25.328
ltibia 66.4016
lfoot -21.2721 8.33395
ltoes -12.1861
629
root -9.19471 14.8509 -1.05461 -332.823 68.3447 -351.939
lowerback 25.6886 1.366 -6.66318
upperback 5.67206 0.277693 -0.98458
thorax -7.95349 0.393119 2.62721
lowerneck -24.4586 -9.50018 -14.9989
upperneck 11.6319 -9.71129 10.076
head 8.8187 -4.26044 4.38228
rclavicle 9.14409e-015 4.57205e-015
rhumerus -14.8721 13.9533 -90.3137
rradius 73.5235
rwrist -17.5588
rhand -22.9943 -35.18
rfingers 7.12502
rthumb 3.44859 -65.1318
lclavicle 9.14409e-015 4.57205e-015
lhumerus 0.0146074 -54.5978 67.8737
lradius 68.4275
lwrist 6.23955
lhand -13.728 -8.26237
lfingers 7.12502
lthumb 12.3913 21.3504
rfemur -45.3693 -17.2526 3.36915
rtibia 57.7895
rfoot -23.6398 -5.729
rtoes -13.8799
lfemur -60.1071 19.7845 -25.0846
ltibia 66.4643
lfoot -21.404 8.26359
ltoes -12.1225
630
root -9.16152 14.8644 -1.07013 -333.612 68.3946 -352.684
lowerback 25.6519 1.2855 -6.88152
upperback 5.5422 0.132827 -0.680629
thorax -8.06535 0.332583 3.13591
lowerneck -24.1921 -9.2009 -15.1002
upperneck 11.7206 -9.26693 9.8217
head 8.73885 -4.09225 4.39071
rclavicle 4.77083e-014 5.56597e-015
rhumerus -15.0403 15.1679 -90.1074
rradius 72.0446
rwrist -17.8367
rhand -22.9947 -35.6175
rfingers 7.12502
rthumb 3.44819 -65.5693
lclavicle 4.77083e-014 5.56597e-015
lhumerus -1.16074 -52.5709 69.187
lradius 67.727
lwrist 6.11603
lhand -13.1198 -9.45095
lfingers 7.12502
lthumb 12.9778 20.1254
rfemur -44.8439 -16.9794 3.41803
rtibia 57.2866
rfoot -23.6124 -5.53954
rtoes -12.2544
lfemur -59.8466 19.8381 -24.81
ltibia 66.4714
lfoot -21.6502 8.17989
ltoes -11.6978
631
root -9.12207 14.8784 -1.0825 -334.268 68.5387 -353.255
lowerback 25.5596 1.1866 -7.01086
upperback 5.42324 -0.0157167 -0.48486
thorax -8.13477 0.267749 3.4752
lowerneck -23.7719 -8.83882 -14.9783
upperneck 11.7206 -8.82457 9.52799
head 8.59269 -3.92174 4.35138
rclavicle 1.0138e-014 8.54774e-015
rhumerus -14.7315 15.9918 -90.333
rradius 69.7705
rwrist -17.7077
rhand -19.2805 -31.677
rfingers 7.12502
rthumb 7.03436 -61.5401
lclavicle 1.0138e-014 8.54774e-015
lhumerus -2.45252 -50.6752 70.4748
lradius 67.0221
lwrist 6.43396
lhand -13.6222 -10.3333
lfingers 7.12502
lthumb 12.4934 19.2732
rfemur -44.1045 -16.589 3.29162
rtibia 56.7119
rfoot -23.7129 -5.06359
rtoes -8.53365
lfemur -59.4994 19.7673 -24.5313
ltibia 66.4331
lfoot -21.9185 8.13228
ltoes -10.9847
632
root -9.07913 14.8939 -1.09101 -335.103 68.713 -354.104
lowerback 25.2579 1.09229 -7.24279
upperback 5.30945 -0.160367 -0.193129
thorax -8.08809 0.202605 3.9781
lowerneck -23.384 -8.4285 -14.8799
upperneck 11.696 -8.29725 9.21135
head 8.43455 -3.71199 4.31917
rclavicle -4.85035e-014 3.89618e-014
rhumerus -14.929 17.305 -90.0352
rradius 68.1491
rwrist -18.1083
rhand -18.4236 -32.4221
rfingers 7.12502
rthumb 7.8615 -62.256
lclavicle -4.85035e-014 3.89618e-014
lhumerus -3.92806 -48.4285 72.0322
lradius 66.138
lwrist 6.92171
lhand -14.8198 -10.9617
lfingers 7.12502
lthumb 11.3386 18.7118
rfemur -43.435 -16.2044 3.4039
rtibia 56.0613
rfoot -23.7312 -5.0794
rtoes -6.9861
lfemur -59.2283 19.7275 -24.1591
ltibia 66.3453
lfoot -22.0445 8.06065
ltoes -10.3807
633
root -9.03169 14.9184 -1.09769 -336.133 68.8542 -355.157
lowerback 24.9293 1.05617 -7.33573
upperback 5.2214 -0.19709 0.0202029
thorax -8.01191 0.183788 4.27883
lowerneck -23.3459 -8.10029 -14.8133
upperneck 11.8815 -7.83602 8.94113
head 8.41855 -3.52214 4.29049
rclavicle 2.60408e-014 -3.97569e-016
rhumerus -15.0739 18.4887 -89.7851
rradius 66.3838
rwrist -18.4566
rhand -17.5891 -33.0375
rfingers 7.12502
rthumb 8.66692 -62.8396
lclavicle 2.60408e-014 -3.97569e-016
lhumerus -5.12468 -45.8605 73.4775
lradius 64.8715
lwrist 6.21451
lhand -15.8813 -11.9515
lfingers 7.12502
lthumb 10.3147 17.7755
rfemur -42.7682 -15.9224 3.72156
rtibia 55.2864
rfoot -23.5401 -5.54212
rtoes -7.9487
lfemur -58.8806 19.7551 -23.7198
ltibia 66.1824
lfoot -22.1332 7.96944
ltoes -9.7831
634
root -8.97781 14.9501 -1.10428 -337.081 68.9886 -356.043
lowerback 24.5894 1.06218 -7.13464
upperback 5.22551 -0.119127 -0.0292701
thorax -7.84597 0.208178 4.08173
lowerneck -23.5513 -7.84549 -14.4884
upperneck 12.1458 -7.52209 8.65993
head 8.47778 -3.38545 4.18982
rclavicle -6.55989e-014 -5.96354e-016
rhumerus -15.1469 19.0458 -89.6524
rradius 64.4996
rwrist -18.5091
rhand -16.4364 -33.5986
rfingers 7.12502
rthumb 9.77912 -63.3515
lclavicle -6.55989e-014 -5.96354e-016
lhumerus -5.91029 -43.5194 74.4919
lradius 63.9282
lwrist 8.10925
lhand -16.2262 -11.8862
lfingers 7.12502
lthumb 9.98194 17.8571
rfemur -41.9236 -15.665 3.93435
rtibia 54.3863
rfoot -23.3871 -5.88383
rtoes -8.41772
lfemur -58.3428 19.7383 -23.3008
ltibia 65.94
lfoot -22.3151 7.82536
ltoes -8.99615
635
root -8.91707 14.9845 -1.10916 -338.152 69.1812 -357.052
lowerback 24.2109 1.06296 -7.05545
upperback 5.12067 -0.0802508 -0.00292198
thorax -7.77451 0.220961 4.05178
lowerneck -23.4531 -7.4229 -13.9929
upperneck 12.4337 -7.0326 8.11465
head 8.45997 -3.19307 4.00184
rclavicle 1.51076e-014 2.3059e-014
rhumerus -15.3511 19.5498 -89.5891
rradius 62.2305
rwrist -18.1742
rhand -14.9626 -34.2742
rfingers 7.12502
rthumb 11.2008 -63.9552
lclavicle 1.51076e-014 2.3059e-014
lhumerus -7.13994 -40.9606 75.8237
lradius 62.7705
lwrist 9.697
lhand -18.5336 -12.319
lfingers 7.12502
lthumb 7.7553 17.5188
rfemur -40.9482 -15.2769 4.15412
rtibia 53.3637
rfoot -23.3521 -6.26734
rtoes -8.5443
lfemur -57.7413 19.6475 -22.7962
ltibia 65.6366
lfoot -22.5322 7.70283
ltoes -8.40782
636
root -8.84773 15.0214 -1.11395 -339.425 69.4408 -358.326
lowerback 23.6284 1.25045 -5.76129
upperback 5.48886 0.485677 -0.723347
thorax -7.13072 0.442304 2.3493
lowerneck -25.3169 -7.65218 -12.6511
upperneck 13.3652 -7.51432 7.80379
head 9.07229 -3.34896 3.5807
rclavicle -1.74931e-014 -4.37326e-015
rhumerus -14.3593 17.6424 -89.7946
rradius 59.2425
rwrist -17.3182
rhand -13.4057 -33.6424
rfingers 7.12502
rthumb 12.7021 -63.2361
lclavicle -1.74931e-014 -4.37326e-015
lhumerus -6.12325 -40.348 75.0609
lradius 61.5314
lwrist 12.1303
lhand -19.3978 -12.1606
lfingers 7.12502
lthumb 6.92117 17.7063
rfemur -39.9057 -14.8198 4.47362
rtibia 52.2163
rfoot -23.2634 -6.79405
rtoes -8.79739
lfemur -57.156 19.4817 -22.1948
ltibia 65.2971
lfoot -22.6625 7.71249
ltoes -8.09022
